<svg xmlns="http://www.w3.org/2000/svg" viewBox="0 0 1200 420" fill="none" role="img" aria-label="DataCorsa available proxy products">
  <defs>
    <linearGradient id="card1" x1="0" y1="0" x2="0" y2="1">
      <stop stop-color="#eef2ff"/>
      <stop offset="1" stop-color="#e0e7ff"/>
    </linearGradient>
    <linearGradient id="card2" x1="0" y1="0" x2="0" y2="1">
      <stop stop-color="#ecfeff"/>
      <stop offset="1" stop-color="#cffafe"/>
    </linearGradient>
    <linearGradient id="card3" x1="0" y1="0" x2="0" y2="1">
      <stop stop-color="#fff7ed"/>
      <stop offset="1" stop-color="#ffedd5"/>
    </linearGradient>
  </defs>

  <rect width="1200" height="420" rx="20" fill="#f8fafc"/>
  <text x="60" y="68" font-family="-apple-system, BlinkMacSystemFont, 'Segoe UI', 'Helvetica Neue', Arial, sans-serif" font-weight="800" font-size="34" fill="#120d38">Available proxy products</text>
  <text x="60" y="102" font-family="-apple-system, BlinkMacSystemFont, 'Segoe UI', 'Helvetica Neue', Arial, sans-serif" font-weight="500" font-size="16" fill="#64748b">DataCorsa currently offers Residential, Datacenter, and Mobile proxy access.</text>

  <g font-family="-apple-system, BlinkMacSystemFont, 'Segoe UI', 'Helvetica Neue', Arial, sans-serif">
    <g transform="translate(60 150)">
      <rect width="330" height="210" rx="18" fill="url(#card1)" stroke="#c7d2fe"/>
      <rect x="24" y="28" width="56" height="56" rx="14" fill="#6d28d9"/>
      <circle cx="52" cy="56" r="18" fill="none" stroke="#ffffff" stroke-width="3"/>
      <ellipse cx="52" cy="56" rx="8" ry="18" fill="none" stroke="#ffffff" stroke-width="2"/>
      <path d="M34 56H70" stroke="#ffffff" stroke-width="2" stroke-linecap="round"/>
      <text x="24" y="116" font-weight="800" font-size="24" fill="#120d38">Residential Proxies</text>
      <text x="24" y="150" font-weight="500" font-size="17" fill="#64748b">200M+ real residential IPs</text>
      <text x="24" y="178" font-weight="500" font-size="17" fill="#64748b">for zero-ban risk data collection.</text>
    </g>

    <g transform="translate(435 150)">
      <rect width="330" height="210" rx="18" fill="url(#card2)" stroke="#67e8f9"/>
      <rect x="24" y="28" width="56" height="56" rx="14" fill="#0891b2"/>
      <rect x="36" y="40" width="32" height="13" rx="2" stroke="#ffffff" stroke-width="3"/>
      <rect x="36" y="61" width="32" height="13" rx="2" stroke="#ffffff" stroke-width="3"/>
      <circle cx="43" cy="46.5" r="1.8" fill="#ffffff"/>
      <circle cx="43" cy="67.5" r="1.8" fill="#ffffff"/>
      <text x="24" y="116" font-weight="800" font-size="24" fill="#120d38">Datacenter Proxies</text>
      <text x="24" y="150" font-weight="500" font-size="17" fill="#64748b">2M+ datacenter IPs,</text>
      <text x="24" y="178" font-weight="500" font-size="17" fill="#64748b">sub-second response, 70% lower cost.</text>
    </g>

    <g transform="translate(810 150)">
      <rect width="330" height="210" rx="18" fill="url(#card3)" stroke="#fed7aa"/>
      <rect x="24" y="28" width="56" height="56" rx="14" fill="#f97316"/>
      <rect x="42" y="39" width="20" height="34" rx="3" stroke="#ffffff" stroke-width="3"/>
      <circle cx="52" cy="67" r="1.8" fill="#ffffff"/>
      <text x="24" y="116" font-weight="800" font-size="24" fill="#120d38">Mobile Proxies</text>
      <text x="24" y="150" font-weight="500" font-size="17" fill="#64748b">Real 4G/5G device IPs</text>
      <text x="24" y="178" font-weight="500" font-size="17" fill="#64748b">for the highest level of anonymity.</text>
    </g>
  </g>
</svg>
